<svg width="316" height="25" viewBox="0 0 316 25" fill="none" xmlns="http://www.w3.org/2000/svg">
<path d="M19 1H1C0.447715 1 0 1.44772 0 2C0 2.55228 0.447715 3 1 3H19C19.5523 3 20 2.55228 20 2C20 1.44772 19.5523 1 19 1Z" fill="#626262"/>
<path d="M19 6H1C0.447715 6 0 6.44772 0 7C0 7.55228 0.447715 8 1 8H19C19.5523 8 20 7.55228 20 7C20 6.44772 19.5523 6 19 6Z" fill="#626262"/>
<path d="M19 11H1C0.447715 11 0 11.4477 0 12C0 12.5523 0.447715 13 1 13H19C19.5523 13 20 12.5523 20 12C20 11.4477 19.5523 11 19 11Z" fill="#626262"/>
<path d="M306 2C306 0.89543 305.105 0 304 0C302.895 0 302 0.89543 302 2C302 3.10457 302.895 4 304 4C305.105 4 306 3.10457 306 2Z" fill="#626262"/>
<path d="M311 2C311 0.89543 310.105 0 309 0C307.895 0 307 0.89543 307 2C307 3.10457 307.895 4 309 4C310.105 4 311 3.10457 311 2Z" fill="#626262"/>
<path d="M316 2C316 0.89543 315.105 0 314 0C312.895 0 312 0.89543 312 2C312 3.10457 312.895 4 314 4C315.105 4 316 3.10457 316 2Z" fill="#626262"/>
<path d="M306 2C306 0.89543 305.105 0 304 0C302.895 0 302 0.89543 302 2C302 3.10457 302.895 4 304 4C305.105 4 306 3.10457 306 2Z" fill="#626262"/>
<path d="M311 2C311 0.89543 310.105 0 309 0C307.895 0 307 0.89543 307 2C307 3.10457 307.895 4 309 4C310.105 4 311 3.10457 311 2Z" fill="#626262"/>
<path d="M316 2C316 0.89543 315.105 0 314 0C312.895 0 312 0.89543 312 2C312 3.10457 312.895 4 314 4C315.105 4 316 3.10457 316 2Z" fill="#626262"/>
<path d="M306 7C306 5.89543 305.105 5 304 5C302.895 5 302 5.89543 302 7C302 8.10457 302.895 9 304 9C305.105 9 306 8.10457 306 7Z" fill="#626262"/>
<path d="M311 7C311 5.89543 310.105 5 309 5C307.895 5 307 5.89543 307 7C307 8.10457 307.895 9 309 9C310.105 9 311 8.10457 311 7Z" fill="#626262"/>
<path d="M316 7C316 5.89543 315.105 5 314 5C312.895 5 312 5.89543 312 7C312 8.10457 312.895 9 314 9C315.105 9 316 8.10457 316 7Z" fill="#626262"/>
<path d="M306 12C306 10.8954 305.105 10 304 10C302.895 10 302 10.8954 302 12C302 13.1046 302.895 14 304 14C305.105 14 306 13.1046 306 12Z" fill="#626262"/>
<path d="M311 12C311 10.8954 310.105 10 309 10C307.895 10 307 10.8954 307 12C307 13.1046 307.895 14 309 14C310.105 14 311 13.1046 311 12Z" fill="#626262"/>
<path d="M316 12C316 10.8954 315.105 10 314 10C312.895 10 312 10.8954 312 12C312 13.1046 312.895 14 314 14C315.105 14 316 13.1046 316 12Z" fill="#626262"/>
<path d="M76 23H33C32.4477 23 32 23.4477 32 24C32 24.5523 32.4477 25 33 25H76C76.5523 25 77 24.5523 77 24C77 23.4477 76.5523 23 76 23Z" fill="#5786D4"/>
<path d="M47.9478 11.2734H44.8945L44.3613 13H41.981L45.3706 3.75781H47.4653L50.8804 13H48.4873L47.9478 11.2734ZM45.4277 9.55322H47.4146L46.418 6.34766L45.4277 9.55322ZM53.7876 11.2861H57.666V13H51.5596V3.75781H53.7876V11.2861ZM60.8335 11.2861H64.7119V13H58.6055V3.75781H60.8335V11.2861Z" fill="#5786D4"/>
<path d="M101.072 12H98.8506V2.75781H101.072V12ZM105.547 2.75781L107.61 9.18799L109.667 2.75781H112.6V12H110.365V9.8418L110.581 5.42383L108.347 12H106.874L104.633 5.41748L104.849 9.8418V12H102.621V2.75781H105.547ZM119.385 10.2734H116.332L115.799 12H113.418L116.808 2.75781H118.903L122.318 12H119.925L119.385 10.2734ZM116.865 8.55322H118.852L117.855 5.34766L116.865 8.55322ZM130.424 10.8574C130.081 11.2383 129.58 11.5451 128.919 11.7778C128.259 12.0106 127.536 12.127 126.749 12.127C125.538 12.127 124.571 11.7567 123.848 11.0161C123.124 10.2756 122.737 9.24512 122.686 7.9248L122.68 7.125C122.68 6.21517 122.84 5.42171 123.162 4.74463C123.484 4.06331 123.943 3.54069 124.54 3.17676C125.14 2.80859 125.834 2.62451 126.622 2.62451C127.773 2.62451 128.666 2.889 129.3 3.41797C129.939 3.94271 130.312 4.7277 130.417 5.77295H128.272C128.196 5.25667 128.031 4.88851 127.777 4.66846C127.523 4.4484 127.163 4.33838 126.698 4.33838C126.139 4.33838 125.708 4.57536 125.403 5.04932C125.098 5.52327 124.944 6.20036 124.939 7.08057V7.63916C124.939 8.56169 125.096 9.2557 125.409 9.72119C125.727 10.1825 126.224 10.4131 126.901 10.4131C127.481 10.4131 127.912 10.284 128.196 10.0259V8.59131H126.647V7.06152H130.424V10.8574ZM137.451 8.0835H133.947V10.2861H138.085V12H131.719V2.75781H138.098V4.47803H133.947V6.42676H137.451V8.0835ZM143.76 9.54346C143.76 9.21761 143.644 8.9637 143.411 8.78174C143.183 8.59977 142.778 8.41146 142.199 8.2168C141.619 8.02214 141.145 7.83382 140.777 7.65186C139.579 7.06364 138.98 6.25537 138.98 5.22705C138.98 4.71501 139.129 4.26432 139.425 3.875C139.725 3.48145 140.148 3.17676 140.694 2.96094C141.24 2.74089 141.854 2.63086 142.535 2.63086C143.2 2.63086 143.794 2.74935 144.319 2.98633C144.848 3.22331 145.258 3.56185 145.55 4.00195C145.842 4.43783 145.988 4.93717 145.988 5.5H143.767C143.767 5.12337 143.65 4.83138 143.417 4.62402C143.189 4.41667 142.878 4.31299 142.484 4.31299C142.087 4.31299 141.771 4.40186 141.539 4.57959C141.31 4.75309 141.196 4.97526 141.196 5.24609C141.196 5.48307 141.323 5.69889 141.577 5.89355C141.831 6.08398 142.277 6.28288 142.916 6.49023C143.555 6.69336 144.08 6.91341 144.49 7.15039C145.489 7.72591 145.988 8.51937 145.988 9.53076C145.988 10.339 145.684 10.9738 145.074 11.4351C144.465 11.8963 143.629 12.127 142.567 12.127C141.818 12.127 141.139 11.9937 140.529 11.7271C139.924 11.4562 139.467 11.0881 139.158 10.6226C138.854 10.1528 138.701 9.61328 138.701 9.00391H140.936C140.936 9.49902 141.062 9.86507 141.316 10.1021C141.575 10.3348 141.991 10.4512 142.567 10.4512C142.935 10.4512 143.225 10.3729 143.437 10.2163C143.652 10.0555 143.76 9.83122 143.76 9.54346Z" fill="#626262"/>
</svg>
